<?xml version="1.0" standalone="no"?>
<!DOCTYPE svg PUBLIC "-//W3C//DTD SVG 1.1//EN" "http://www.w3.org/Graphics/SVG/1.1/DTD/svg11.dtd" >
<svg xmlns="http://www.w3.org/2000/svg">
<metadata></metadata>
<defs>
<font id="sabadoitalic" horiz-adv-x="1124" >
<font-face units-per-em="2048" ascent="1536" descent="-512" />
<missing-glyph horiz-adv-x="514" />
<glyph unicode="&#xfb01;" horiz-adv-x="1196" d="M111 299l59 240h240l223 895h835l-59 -240h-598l-164 -655h598l-133 -539h-240l74 299h-358l-74 -299h-238l74 299h-239z" />
<glyph unicode="&#xfb02;" horiz-adv-x="1196" d="M111 299l59 240h240l223 895h835l-356 -1434h-240l297 1194h-358l-164 -655h240l-60 -240h-239l-74 -299h-238l74 299h-239z" />
<glyph unicode="&#xfb03;" horiz-adv-x="1929" d="M82 0l266 1075h658l-60 -239h-418l-104 -418h379l-60 -238h-378l-43 -180h-240zM834 0l266 1075h657l-59 -239h-418l-104 -418h378l-59 -238h-379l-43 -180h-239zM1487 0h239l267 1075h-240z" />
<glyph unicode="&#xfb04;" horiz-adv-x="2267" d="M82 0l266 1075h658l-60 -239h-418l-104 -418h379l-60 -238h-378l-43 -180h-240zM739 0l267 1075h657l-59 -239h-418l-105 -418h379l-59 -238h-379l-43 -180h-240zM1397 0l266 1075h240l-207 -835h401l-59 -240h-641z" />
<glyph horiz-adv-x="2048" />
<glyph horiz-adv-x="2048" />
<glyph unicode="&#xd;" horiz-adv-x="2048" />
<glyph unicode=" "  horiz-adv-x="514" />
<glyph unicode="&#x09;" horiz-adv-x="514" />
<glyph unicode="&#xa0;" horiz-adv-x="514" />
<glyph unicode="!" horiz-adv-x="391" d="M106 119q12 51 56 86t94 35q51 0 76.5 -35t13.5 -86q-12 -50 -55 -84.5t-94 -34.5q-50 0 -76.5 35t-14.5 84zM197 477l237 957h240l-238 -957h-239z" />
<glyph unicode="&#x22;" horiz-adv-x="714" d="M354 1114l111 320h240l-181 -320h-170zM659 1114l111 320h240l-181 -320h-170z" />
<glyph unicode="#" horiz-adv-x="1183" d="M129 299l59 240h148l137 358h-194l59 238h225l113 299h242l-113 -299h237l111 299h242l-113 -299h131l-59 -238h-162l-137 -358h209l-60 -240h-239l-113 -299h-240l113 299h-238l-112 -299h-242l113 299h-117zM578 539h237l135 358h-235z" />
<glyph unicode="$" horiz-adv-x="1085" d="M119 324l243 82q8 -75 59.5 -115.5t125.5 -48.5l106 428q-246 13 -311 192q-33 93 -8 191q24 98 104 192q152 182 406 191l30 118h134l-33 -133q123 -32 221 -137l-205 -174q-31 34 -80 59l-67 -272q102 -20 178 -68.5t117 -119.5q59 -115 24 -256q-14 -51 -30 -84 q-64 -141 -203.5 -238.5t-308.5 -122.5l-29 -121h-133l28 117q-155 9 -254 95t-114 225zM571 1026q1 -26 9 -47q28 -64 133 -70l71 289q-112 -5 -172 -74q-13 -15 -22.5 -31.5t-13 -26t-3.5 -13.5q-3 -1 -2 -27zM682 252q75 16 137.5 58.5t91.5 105.5q6 12 15 39 q14 55 -11 104q-38 66 -133 94z" />
<glyph unicode="%" horiz-adv-x="1671" d="M233 0l1278 1434h283l-1278 -1434h-283zM326 1075q38 150 168.5 254.5t279.5 104.5q148 0 227 -105t41 -254q-37 -148 -167.5 -253t-278.5 -105q-149 0 -228 105t-42 253zM565 1075q-12 -50 14.5 -84.5t75.5 -34.5q50 0 93 35t55 84q12 50 -13.5 84.5t-74.5 34.5 q-50 0 -94 -35t-56 -84zM983 358q37 149 169 254t280 105q149 0 227 -104.5t41 -254.5q-37 -148 -167.5 -253t-279.5 -105q-148 0 -227.5 105t-42.5 253zM1223 358q-12 -49 14 -83.5t76 -34.5t93.5 34.5t55.5 83.5q12 50 -14.5 84.5t-75.5 34.5q-50 0 -93.5 -35t-55.5 -84z " />
<glyph unicode="&#x26;" horiz-adv-x="1435" d="M172 479q32 129 123.5 238.5t216.5 173.5t254 65l-160 478h1104l-59 -240h-688l399 -1194h-277l-79 242q-93 -110 -219.5 -176t-256.5 -66q-129 0 -223 64t-130.5 174.5t-4.5 240.5zM412 479q-25 -100 27.5 -169.5t150.5 -69.5q100 0 187 69.5t112 169.5q15 66 -4 123 q-21 53 -67 84t-109 31q-98 0 -185 -70t-112 -168z" />
<glyph unicode="'" horiz-adv-x="378" d="M348 1114l111 320h239l-180 -320h-170z" />
<glyph unicode="(" horiz-adv-x="536" d="M184.5 485q1.5 116 30.5 232q21 85 57 170t74.5 151t85.5 131t83.5 108t75 82.5t53 52.5t24.5 22l137 -160l-21 -21q-48 -49 -80 -85.5t-88 -110t-98 -160.5t-65 -180q-21 -84 -22 -169.5t9 -143t31 -118t30.5 -79.5t22.5 -43q1 -1 -6.5 -7.5t-55.5 -43t-151 -113.5 q-7 9 -24 39t-43.5 99.5t-43.5 150t-15.5 196.5z" />
<glyph unicode=")" horiz-adv-x="534" d="M86 160q129 124 221 267t129 290q21 84 22 169t-9.5 144.5t-30.5 117.5t-31 80.5t-22 41.5q-1 1 11 11q23 19 204 153q7 -9 24 -39t43 -99.5t43 -150t16 -196.5t-30 -232t-86.5 -232.5t-112.5 -195t-119.5 -151.5t-91 -98t-43.5 -40z" />
<glyph unicode="*" horiz-adv-x="569" d="M330 1145l24 100h119l-59 80l86 70l61 -80l29 119h100l-31 -125l109 86l53 -70l-100 -80h110l-24 -100h-119l66 -88l-86 -70l-68 88l-29 -119h-100l27 111l-99 -80l-53 70l109 88h-125z" />
<glyph unicode="+" horiz-adv-x="997" d="M154 537l59 237h358l88 359h240l-88 -359h358l-59 -237h-358l-90 -359h-240l90 359h-358z" />
<glyph unicode="," horiz-adv-x="348" d="M31 -53l164 289h186l-221 -289h-129z" />
<glyph unicode="-" d="M158 299l59 238h957l-60 -238h-956z" />
<glyph unicode="." horiz-adv-x="354" d="M86 119q12 51 56 86t94 35q51 0 76.5 -35t13.5 -86q-12 -50 -55.5 -84.5t-94.5 -34.5q-49 0 -75.5 34.5t-14.5 84.5z" />
<glyph unicode="/" horiz-adv-x="876" d="M14 0l949 1434h258l-949 -1434h-258z" />
<glyph unicode="0" horiz-adv-x="1087" d="M181 400.5q4 63.5 9 93t9 45.5l90 358q2 12 12.5 43.5t39.5 94t67 118.5q93 136 219 208.5t272 72.5q147 0 238 -72.5t116 -208.5q4 -22 6 -46t2.5 -45t-0.5 -42t-2.5 -37.5t-4 -32.5t-4 -25.5t-3.5 -18t-2 -9.5l-90 -358q-40 -141 -119 -258q-93 -136 -219.5 -208.5 t-273.5 -72.5q-146 0 -237 73t-116 208q-13 56 -9 119.5zM427 439q0 -16 1.5 -34t5.5 -34q23 -131 168 -131q23 0 55 4l-116 696l-13 -43l-90 -358l-1 -5q-1 -6 -3 -15t-3.5 -21.5t-2.5 -27.5t-1 -31zM760 1184l123 -731q10 21 18 42t11 31.5t3 12.5l91 358q2 10 4 25.5 t5 62t-5 78.5q-26 131 -170 131q-46 0 -80 -10z" />
<glyph unicode="1" horiz-adv-x="481" d="M160 0l297 1194h-119l59 240h359l-357 -1434h-239z" />
<glyph unicode="2" horiz-adv-x="1032" d="M68 0l63 258l10 18q10 20 37 53.5t111.5 114.5t206.5 179q36 29 159 110l29 19q118 69 246 170q12 9 27 40t20 54q43 178 -156 178q-117 0 -180.5 -55t-95.5 -183h-240q56 225 209 351q151 127 367 127q197 0 288.5 -115.5t44.5 -302.5q-5 -26 -18 -62.5t-51.5 -98.5 t-89.5 -103q-136 -110 -281 -195l-14 -8q-98 -65 -137 -96q-152 -120 -240 -213h639l-59 -240h-895z" />
<glyph unicode="3" horiz-adv-x="1050" d="M160 477h239q-25 -98 28 -167.5t151 -69.5q100 0 187 69.5t112 167.5q25 100 -28 170t-153 70l60 239q50 0 93.5 35t55.5 84q12 50 -14.5 84.5t-75.5 34.5q-50 0 -93.5 -35t-55.5 -84h-240q38 149 169 254t279 105q149 0 228 -105t41 -254q-26 -116 -125 -215 q72 -68 98.5 -165.5t-0.5 -217.5q-50 -197 -225 -337t-373 -140q-129 0 -223 64t-130.5 174t-4.5 239z" />
<glyph unicode="4" horiz-adv-x="1079" d="M78 240l51 211l819 983h262l-237 -957h180l-59 -237h-181l-59 -240h-238l60 240h-598zM430 477h305l129 522z" />
<glyph unicode="5" horiz-adv-x="1050" d="M162 477h239q-25 -98 28 -167.5t151 -69.5q100 0 187 69.5t112 167.5q25 100 -28 170t-153 70h-299l179 717h598l-60 -240h-358l-60 -238h60q97 0 177 -37.5t127 -103t65 -152.5t-9 -186q-50 -197 -225 -337t-373 -140q-129 0 -223 64t-130.5 174t-4.5 239z" />
<glyph unicode="6" horiz-adv-x="1040" d="M160 477q31 121 125 244l567 713h272l-379 -478q135 0 232 -64.5t134.5 -174.5t4.5 -240q-50 -197 -225 -337t-373 -140q-129 0 -223 64t-130.5 174t-4.5 239zM399 477q-25 -98 28 -167.5t151 -69.5q100 0 187 69.5t112 167.5q25 100 -28 170t-153 70q-98 0 -185 -70 t-112 -170z" />
<glyph unicode="7" horiz-adv-x="1024" d="M61 0l871 1194h-467l59 240h846l-1044 -1434h-265z" />
<glyph unicode="8" horiz-adv-x="1062" d="M172 477q29 116 104.5 215.5t180.5 167.5q-47 90 -19 215q38 149 169.5 254t279.5 105q149 0 227.5 -105t40.5 -254q-26 -116 -125 -215q72 -68 98.5 -165.5t-0.5 -217.5q-50 -197 -225 -337t-373 -140q-129 0 -223 64t-130.5 174t-4.5 239zM412 477q-25 -98 27.5 -167.5 t150.5 -69.5q100 0 187 69.5t112 167.5q25 100 -27.5 170t-152.5 70q-98 0 -185 -70t-112 -170zM678 1075q-12 -50 14.5 -84.5t75.5 -34.5q50 0 94 35t56 84t-14.5 84t-76.5 35t-93.5 -35t-55.5 -84z" />
<glyph unicode="9" horiz-adv-x="1040" d="M270 0l381 477h-12q-129 0 -223 64t-130.5 174.5t-4.5 240.5q50 197 225 337.5t371 140.5q130 0 224.5 -64.5t131 -174.5t4.5 -239q-33 -128 -127 -243l-567 -713h-273zM520 956q-25 -100 27.5 -169.5t150.5 -69.5q100 0 187 69.5t112 169.5q25 98 -27.5 168t-152.5 70 q-98 0 -185 -70t-112 -168z" />
<glyph unicode=":" horiz-adv-x="368" d="M123 236q12 51 55.5 85.5t93.5 34.5q51 0 76.5 -34.5t13.5 -85.5q-12 -50 -55 -84.5t-94 -34.5q-49 0 -75.5 34.5t-14.5 84.5zM270 827q12 49 56 84t94 35q51 0 76.5 -34.5t13.5 -84.5q-12 -51 -55.5 -85.5t-94.5 -34.5q-50 0 -76 34.5t-14 85.5z" />
<glyph unicode=";" horiz-adv-x="362" d="M63 70l164 288h187l-221 -288h-130zM291 827q12 49 55.5 84t93.5 35q51 0 76.5 -34.5t13.5 -84.5q-12 -51 -55 -85.5t-94 -34.5q-50 0 -76 34.5t-14 85.5z" />
<glyph unicode="&#x3c;" horiz-adv-x="608" d="M193 717l471 434l145 -152l-305 -282l164 -283l-222 -151z" />
<glyph unicode="=" d="M158 297l59 240h957l-60 -240h-956zM276 774l60 240h956l-59 -240h-957z" />
<glyph unicode="&#x3e;" horiz-adv-x="608" d="M154 434l307 283l-166 282l223 152l254 -434l-471 -434z" />
<glyph unicode="?" horiz-adv-x="958" d="M268 956q56 225 209 351q151 127 367 127q197 0 289 -115.5t45 -302.5q-3 -17 -12 -42.5t-27 -65.5t-50 -82.5t-71 -73.5q-61 -49 -174 -131q-118 -89 -139 -113q-16 -17 -19 -31l-16 -59h-238l17 59q10 41 30 78t42 65t60 62t67 56t79 59q1 0 65 48t101 77q12 9 27 40 t20 54q43 178 -156 178q-117 0 -180.5 -55t-95.5 -183h-240zM358 119q12 51 56 86t94 35q49 0 74.5 -35t13.5 -86q-12 -50 -55 -84.5t-92 -34.5q-50 0 -76.5 35t-14.5 84z" />
<glyph unicode="A" horiz-adv-x="1386" d="M35 0l887 1434h256l174 -1434h-256l-37 299h-586l-184 -299h-254zM623 539h407l-67 551z" />
<glyph unicode="B" horiz-adv-x="1214" d="M82 0l356 1434h588q171 0 244 -107q38 -57 48 -135q3 -23 3 -46q0 -58 -16 -122q-38 -148 -138 -254q112 -90 111 -238v-22q0 -2 -4 -34t-8 -48q-27 -108 -89.5 -190t-147 -131t-176.5 -75t-194 -32h-577zM381 240h385q42 0 101.5 19.5t101.5 64.5q42 42 55 98q6 21 6 45 v12q0 60 -29 82q-50 37 -106 37h-426zM528 836h318q83 0 140.5 53t80.5 139q7 30 7 55q0 37 -16 65q-26 46 -91 46h-349z" />
<glyph unicode="C" horiz-adv-x="1333" d="M210 491q-2 23 -2 47q0 86 21 179q48 194 185.5 359.5t326.5 261.5t383 96q146 0 264 -56.5t193 -156.5l-213 -170q-48 67 -126.5 105t-176.5 38q-198 0 -372 -139.5t-224 -337.5q-16 -60 -16 -115q0 -36 7 -71q17 -87 64 -151.5t126.5 -102t176.5 -37.5q198 0 367 137 l129 -170q-125 -98 -268 -152.5t-287 -54.5q-117 0 -217.5 36.5t-171 102t-116 155.5t-53.5 197z" />
<glyph unicode="D" horiz-adv-x="1271" d="M82 0l356 1434h477q15 0 38.5 -2.5t68.5 -10t98.5 -28t100.5 -50.5q42 -28 76.5 -62t66.5 -89q30 -55 46 -120q13 -56 14 -132v-25q-2 -92 -29 -198t-70 -198t-91.5 -157.5t-107.5 -120t-111 -89t-108 -62.5q-80 -39 -166.5 -61.5t-121.5 -25.5t-60 -3h-477zM381 240h237 q13 0 36.5 2t84 18t113.5 43q229 113 303 414q23 91 23 166q0 169 -119 247q-39 27 -91.5 43t-76 18.5t-35.5 2.5h-238z" />
<glyph unicode="E" horiz-adv-x="1110" d="M82 0l356 1434h946l-59 -240h-707l-104 -418h582l-60 -239h-581l-74 -297h706l-59 -240h-946z" />
<glyph unicode="F" horiz-adv-x="937" d="M82 0l356 1434h836l-60 -240h-596l-163 -657h532l-59 -238h-533l-73 -299h-240z" />
<glyph unicode="G" horiz-adv-x="1480" d="M214 491q-2 23 -2 47q0 86 21 179q48 194 185.5 359.5t326.5 261.5t383 96q145 0 263.5 -55t193.5 -158l-211 -168q-104 141 -305 141q-198 0 -372 -139.5t-224 -337.5q-16 -60 -16 -115q0 -37 7 -71q17 -87 64 -151.5t126.5 -102t176.5 -37.5q114 0 226.5 49.5 t204.5 140.5q2 3 13.5 15.5t16.5 19.5l19 74h-418l59 237h658l-193 -776h-239l30 125q-214 -125 -436 -125q-117 0 -217.5 36.5t-171 102t-116.5 155.5t-53 197z" />
<glyph unicode="H" horiz-adv-x="1298" d="M82 0l356 1434h240l-223 -897h655l223 897h240l-356 -1434h-240l74 299h-656l-73 -299h-240z" />
<glyph unicode="I" horiz-adv-x="401" d="M82 0l356 1434h240l-356 -1434h-240z" />
<glyph unicode="J" horiz-adv-x="624" d="M23 0l59 240q84 0 172 41q155 73 201 256l223 897h240l-224 -897q-40 -161 -142 -283t-253 -188q-62 -28 -130.5 -44.5t-98 -19t-47.5 -2.5z" />
<glyph unicode="K" horiz-adv-x="1273" d="M82 0l356 1434h240l-182 -736l770 736h305l-793 -756l432 -678h-319l-311 487l-181 -170l-77 -317h-240z" />
<glyph unicode="L" horiz-adv-x="927" d="M80 0l356 1434h240l-297 -1194h596l-60 -240h-835z" />
<glyph unicode="M" horiz-adv-x="1652" d="M80 0l356 1434h221l340 -748l711 748h221l-356 -1434h-240l246 991l-686 -721l-328 721l-246 -991h-239z" />
<glyph unicode="N" horiz-adv-x="1294" d="M80 0l356 1434h254l389 -1012l252 1012h240l-357 -1434h-253l-390 1012l-252 -1012h-239z" />
<glyph unicode="O" horiz-adv-x="1548" d="M236 717q36 146 126 278.5t209.5 228.5t266.5 153t292 57q117 0 217.5 -36.5t171 -102t116.5 -155.5q45 -90 53 -197q2 -23 2 -47q0 -86 -21 -179q-48 -194 -185.5 -359.5t-326.5 -261.5t-383 -96t-335 96t-196 262q-29 88 -29 184q0 85 22 175zM475 717 q-15 -61 -15 -117q0 -64 20 -123q36 -110 130 -173.5t224 -63.5q198 0 372 139.5t224 337.5q15 61 15 117q1 64 -19 123q-36 110 -130.5 173.5t-224.5 63.5q-198 0 -372 -139.5t-224 -337.5z" />
<glyph unicode="P" horiz-adv-x="1226" d="M84 0l356 1434h557q20 0 48 -2.5t92.5 -19t115.5 -46.5q121 -70 163 -196q21 -63 21 -135q0 -74 -22 -158q-41 -169 -146 -296t-261 -196q-147 -66 -289 -66h-318l-77 -319h-240zM461 557h317q10 0 29.5 1.5t67 13t88.5 30.5q166 79 215 275q14 54 14 100q0 121 -98 176 q-31 17 -71.5 27.5t-58.5 12t-26 1.5h-317z" />
<glyph unicode="Q" horiz-adv-x="1546" d="M220 440q-10 53 -10 109q0 82 23 170q36 145 126 277t209.5 228t266 153t291.5 57q116 0 216.5 -36.5t171 -102t116.5 -155t53 -196.5q1 -21 1 -44q0 -86 -21 -181q-64 -258 -279 -457l72 -96l-213 -166l-78 106q-193 -102 -395 -102q-145 0 -263.5 56t-189 153 t-97.5 227zM471 719q-15 -61 -15 -117q0 -64 20 -123q36 -110 130 -173.5t223 -63.5q104 0 209 43l-123 172l213 166l136 -187q121 128 161 283q15 61 15 117q0 64 -19 122q-36 110 -130 174t-224 64q-196 0 -371 -140t-225 -337z" />
<glyph unicode="R" horiz-adv-x="1259" d="M84 0l356 1434h557q20 0 48 -2.5t92.5 -19t115.5 -46.5q121 -70 163 -196q21 -63 21 -135q0 -74 -22 -158q-41 -169 -146 -296t-261 -196l-19 -8l172 -377h-291q-147 319 -151 319h-318l-77 -319h-240zM461 557h317q10 0 29.5 1.5t67 13t88.5 30.5q166 79 215 275 q14 54 14 100q0 121 -98 176q-31 17 -71.5 27.5t-58.5 12t-26 1.5h-317z" />
<glyph unicode="S" horiz-adv-x="1110" d="M133 322l244 81q10 -86 72.5 -125.5t150.5 -39.5q5 0 15.5 1t15.5 1q58 4 114.5 24t107 59t73.5 91q2 4 14 39q4 21 4 40q0 36 -16 64q-26 51 -90.5 79t-153.5 30q-262 9 -328 194q-14 40 -16 86q-1 23 -1.5 39.5t1.5 28.5q2 22 6 37q4 14 12.5 37t34.5 68.5t60 86.5 q158 191 424 191q69 0 133 -20.5t106 -50.5t63.5 -49.5t30.5 -31.5l-182 -199q-4 5 -11.5 12.5t-30.5 27t-47 34.5t-57.5 27t-64.5 12q-129 0 -190 -74q-28 -32 -41 -71v-9q-1 -9 -1.5 -18t1.5 -22.5t6 -24.5q31 -69 158 -72q141 -3 245 -55.5t154 -144.5q41 -74 40 -156 q0 -48 -13 -98q-9 -42 -29 -84q-68 -151 -222 -252t-337 -113q-14 -2 -45 -2q-173 0 -284 86.5t-126 235.5z" />
<glyph unicode="T" horiz-adv-x="1144" d="M332 1194l59 240h1075l-59 -240h-418l-297 -1194h-239l297 1194h-418z" />
<glyph unicode="U" horiz-adv-x="1218" d="M192 412q0 27 3 54t5.5 43.5t5.5 32.5l3 15l219 877h240l-219 -877q-10 -44 -10 -87t10 -85q36 -145 219 -145t290 145q18 23 34 49.5t25.5 47.5t16 38.5t10.5 27.5l3 11l217 875h239l-219 -877q-2 -13 -13 -46.5t-43.5 -99t-74.5 -124.5q-100 -138 -241 -212.5 t-304 -74.5q-162 0 -266.5 74.5t-136.5 212.5q-7 31 -10 65q-3 29 -3 52v8z" />
<glyph unicode="V" horiz-adv-x="1386" d="M391 1434h254l131 -1090l676 1090h256l-887 -1434h-256z" />
<glyph unicode="W" horiz-adv-x="1816" d="M410 1434h245v-942l471 942h277v-942l471 942h246l-715 -1434h-246l-4 1001l-498 -1001h-245z" />
<glyph unicode="X" horiz-adv-x="1337" d="M66 0l639 717l-283 717h285l194 -496l442 496h285l-639 -717l283 -717h-285l-196 496l-441 -496h-284z" />
<glyph unicode="Y" horiz-adv-x="1370" d="M383 1434h293l239 -512l492 512h293l-727 -756l-168 -678h-240l168 678z" />
<glyph unicode="Z" horiz-adv-x="1239" d="M82 0l68 279l1021 915h-792l59 240h1075l-69 -279l-1020 -915h793l-60 -240h-1075z" />
<glyph unicode="[" horiz-adv-x="524" d="M84 0l356 1434h359l-60 -240h-118l-238 -954h119l-60 -240h-358z" />
<glyph unicode="\" horiz-adv-x="876" d="M369 1434h258l235 -1434h-258z" />
<glyph unicode="]" horiz-adv-x="524" d="M84 0l59 240h119l238 954h-119l59 240h359l-357 -1434h-358z" />
<glyph unicode="^" horiz-adv-x="960" d="M258 911l580 523l315 -523l-217 -155l-191 311l-344 -311z" />
<glyph unicode="_" d="M84 0l59 240h957l-60 -240h-956z" />
<glyph unicode="`" horiz-adv-x="403" d="M342 1145l143 289h246l-221 -289h-168z" />
<glyph unicode="a" horiz-adv-x="1130" d="M37 0l670 1083h254l133 -1083h-254l-27 197h-401l-121 -197h-254zM561 436h225l-36 303z" />
<glyph unicode="b" horiz-adv-x="964" d="M82 0l266 1075h447q135 0 194 -86q42 -61 42 -143q0 -42 -11 -90q-25 -91 -82 -170q62 -59 62 -160q0 -13 -1 -27q-4 -45 -10 -65q-19 -78 -65.5 -140.5t-109.5 -102.5t-133 -63t-144 -28h-15h-440zM381 240h231q77 7 111 43q22 26 27 51q4 16 4 22q0 30 -13 43 q-23 16 -57 19h-260zM485 657h164q55 6 84 23t43 59l2 11q4 17 4 30q0 56 -69 56h-185z" />
<glyph unicode="c" horiz-adv-x="1028" d="M184 539q56 221 252.5 378.5t417.5 157.5q108 0 197.5 -41.5t146.5 -118.5l-211 -167q-66 88 -192 88q-123 0 -231.5 -87t-139.5 -210q-10 -40 -10 -76q0 -75 44 -135q66 -88 189 -88q119 0 232 86l125 -170q-198 -156 -416 -156q-145 0 -251 72q-105 72 -147 196 q-22 67 -23 140q0 63 17 131z" />
<glyph unicode="d" horiz-adv-x="1032" d="M82 0l262 1055h383q17 0 44 -2.5t86 -18.5t106 -43q109 -65 147 -185q18 -59 18 -127q0 -71 -20 -151q-40 -159 -137 -279t-240 -186q-60 -27 -127 -43t-94 -18t-45 -2h-383zM381 240h141q76 0 160 41q142 66 188 247q13 51 13 94q0 105 -78 154q-27 17 -62.5 27 t-52.5 12t-24 2h-142z" />
<glyph unicode="e" horiz-adv-x="866" d="M84 0l266 1075h699l-60 -239h-459l-55 -222h373l-60 -237h-372l-33 -137h459l-60 -240h-698z" />
<glyph unicode="f" horiz-adv-x="770" d="M82 0l266 1075h658l-60 -239h-418l-104 -418h379l-60 -238h-378l-43 -180h-240z" />
<glyph unicode="g" horiz-adv-x="1169" d="M188 539q56 221 252.5 378.5t417.5 157.5q108 0 197.5 -41.5t146.5 -118.5l-211 -167q-66 88 -192 88q-123 0 -231.5 -87t-139.5 -210q-10 -40 -10 -76q0 -76 44 -135q66 -88 189 -88q119 0 232 86q17 17 26 32h-180l59 240h467l-147 -598h-240l19 76q-146 -76 -295 -76 q-145 0 -251 72t-147 196q-23 67 -23 140q0 63 17 131z" />
<glyph unicode="h" horiz-adv-x="1075" d="M82 0l266 1075h240l-160 -643h432l160 643h240l-267 -1075h-239l47 195h-432l-47 -195h-240z" />
<glyph unicode="i" horiz-adv-x="405" d="M84 0l266 1075h240l-266 -1075h-240z" />
<glyph unicode="j" horiz-adv-x="516" d="M35 0l59 240h4q52 0 105 26q86 42 114 152l164 657h240l-164 -657q-31 -126 -110.5 -221t-198.5 -148q-111 -49 -213 -49z" />
<glyph unicode="k" horiz-adv-x="1071" d="M82 0l268 1083h240l-119 -479l502 479h305l-604 -575l327 -508h-319l-207 319l-98 -96l-55 -223h-240z" />
<glyph unicode="l" horiz-adv-x="741" d="M82 0l266 1075h240l-207 -835h401l-59 -240h-641z" />
<glyph unicode="m" horiz-adv-x="1314" d="M82 0l266 1075h209l238 -520l495 520h209l-266 -1075h-240l154 618l-457 -479l-215 479l-153 -618h-240z" />
<glyph unicode="n" horiz-adv-x="1062" d="M84 0l266 1075h244l254 -641l160 641h237l-266 -1075h-244l-252 641l-159 -641h-240z" />
<glyph unicode="o" horiz-adv-x="1185" d="M188 539q56 221 252.5 378.5t417.5 157.5q146 0 252 -72q106 -71 148 -195q22 -66 23 -139q0 -63 -17 -130q-36 -146 -139 -270t-245 -196.5t-288 -72.5q-145 0 -251 72q-105 72 -147 196q-22 67 -23 140q0 63 17 131zM428 539q-10 -40 -10 -76q0 -75 44 -135 q66 -88 189 -88q125 0 233.5 87.5t139.5 211.5q10 39 10 75q0 76 -45 135q-66 87 -190 87q-123 0 -231.5 -87t-139.5 -210z" />
<glyph unicode="p" horiz-adv-x="993" d="M84 0l266 1075h438q107 0 201 -53q95 -54 128 -154q17 -50 17 -109q0 -57 -16 -122q-32 -132 -115 -231.5t-206 -153.5q-120 -53 -226 -53h-198l-49 -199h-240zM432 438h197q58 0 121 31q97 41 129 168q9 36 9 66q0 71 -54 104q-48 29 -107 29h-197z" />
<glyph unicode="q" horiz-adv-x="1189" d="M188 541q36 145 138.5 268t244 194.5t287.5 71.5q145 0 251 -71.5t147 -194.5q23 -66 23 -138q0 -63 -17 -130q-42 -174 -183 -318l41 -57l-211 -166l-49 68q-134 -64 -268 -64q-146 0 -252 72t-147 196q-22 65 -22 137q0 64 17 132zM426 541q-10 -39 -10 -75 q0 -77 46 -136q66 -88 189 -88q34 0 76 10l-51 72l213 165l63 -90q53 69 70 142q10 40 10 75q0 76 -44 135q-66 87 -189 87t-232.5 -87t-140.5 -210z" />
<glyph unicode="r" horiz-adv-x="1044" d="M84 0l266 1075h441q108 0 202 -53q95 -54 128 -154q17 -51 17 -111q0 -57 -16 -122q-60 -240 -266 -359l127 -276h-293l-90 195h-229l-47 -195h-240zM430 432h201q58 0 121 31q100 47 133 172q8 33 8 60q0 78 -62 114q-20 12 -45 18.5t-40 7.5l-15 1h-201z" />
<glyph unicode="s" horiz-adv-x="872" d="M115 248l241 80q4 -27 19 -46t36.5 -27.5t39.5 -11.5t36 -3h17q50 3 98.5 27.5t67.5 64.5q6 9 6 20q9 28 -6 49q-15 28 -54 45.5t-92 18.5q-70 2 -123.5 22.5t-82 52.5t-46.5 72q-16 36 -16 72v6q2 40 8 76q12 49 43.5 99.5t81 97.5t125.5 76.5t164 29.5 q53 0 101.5 -15.5t81 -39t47.5 -36.5t24 -24l-184 -190q-14 17 -55.5 42t-74.5 25q-94 0 -114 -63q-5 -32 16 -48.5t70 -17.5q108 -3 187 -43t116 -110q30 -57 30 -123q0 -38 -10 -78q-14 -47 -22 -63q-54 -118 -172 -196t-256 -87q-12 -2 -37 -2q-131 0 -215 66.5 t-96 181.5z" />
<glyph unicode="t" horiz-adv-x="860" d="M246 836l59 239h782l-59 -239h-272l-207 -836h-238l207 836h-272z" />
<glyph unicode="u" horiz-adv-x="987" d="M166 323q2 49 6 76.5t8 36.5l158 633h240l-158 -633q-2 -3 -4.5 -18t-2 -42.5t6.5 -51.5q21 -84 133 -84q114 0 178 90q16 23 29.5 49.5t18.5 41.5l5 15l158 633h240l-158 -633q0 -1 -4 -12t-8.5 -24.5t-13.5 -34.5t-19 -42t-25.5 -47.5t-33.5 -50.5 q-80 -109 -189.5 -167t-236.5 -58q-128 0 -210.5 58.5t-107.5 166.5q-10 42 -10 84v14z" />
<glyph unicode="v" horiz-adv-x="1136" d="M305 1083h254l92 -747l463 747h254l-670 -1083h-260z" />
<glyph unicode="w" horiz-adv-x="1521" d="M326 1075h245l2 -643l320 643h268v-643l322 643h246l-535 -1075h-276l-3 625l-311 -625h-276z" />
<glyph unicode="x" horiz-adv-x="1130" d="M94 0l455 512l-219 559l10 6h272l136 -344l307 344h270l6 -6l-497 -559l202 -512h-284l-115 291l-258 -291h-285z" />
<glyph unicode="y" horiz-adv-x="1116" d="M295 1071h293l153 -330l318 330h295l-553 -573l-123 -498h-240l123 498z" />
<glyph unicode="z" horiz-adv-x="909" d="M82 0l53 217l602 619h-448l59 239h717l-70 -278l-542 -557h440l-59 -240h-752z" />
<glyph unicode="{" horiz-adv-x="741" d="M160 0l186 446l-135 271l270 270l35 447h500l-60 -240h-217l-22 -268l-207 -209l102 -209l-110 -268h217l-60 -240h-499z" />
<glyph unicode="|" horiz-adv-x="405" d="M72 -47l393 1583h240l-394 -1583h-239z" />
<glyph unicode="}" horiz-adv-x="745" d="M84 0l59 240h217l21 268l209 209l-105 209l113 268h-217l59 240h500l-186 -447l135 -270l-271 -271l-34 -446h-500z" />
<glyph unicode="~" horiz-adv-x="729" d="M365 1264q33 31 55 49.5t61 46.5t78 42.5t76 14.5q68 0 121 -47q15 -12 35 -12q36 0 80.5 29t62.5 47q3 0 11 -9t30 -33.5t41 -45.5q-84 -77 -144.5 -115.5t-123.5 -38.5q-73 0 -123 45q-15 12 -33 12q-45 0 -146 -75z" />
<glyph unicode="&#xa1;" horiz-adv-x="391" d="M78 0l237 956h240l-238 -956h-239zM406 1315q12 50 55 84.5t94 34.5q49 0 75.5 -34.5t14.5 -84.5q-14 -51 -57 -86t-92 -35q-51 0 -77 35t-13 86z" />
<glyph unicode="&#xa2;" horiz-adv-x="1302" d="M219 717q66 262 284 460.5t482 243.5l31 131h133l-29 -118q145 -1 261 -57.5t188 -155.5l-211 -170q-100 140 -297 143l-238 -954q195 3 361 137l127 -170q-123 -96 -264 -151t-283 -56l-31 -119h-133l33 131q-241 45 -360 244t-54 461zM459 717q-41 -163 25.5 -291 t209.5 -170l230 922q-164 -42 -295 -170t-170 -291z" />
<glyph unicode="&#xa5;" horiz-adv-x="1378" d="M387 1434h293l240 -512l491 512h293l-727 -756l-4 -14h239l-32 -134h-240l-27 -106h240l-33 -131h-239l-72 -293h-240l72 293h-238l33 131h238l26 106h-237l33 134h237l4 14z" />
<glyph unicode="&#xa6;" horiz-adv-x="405" d="M84 0l147 598h240l-147 -598h-240zM291 836l149 598h240l-150 -598h-239z" />
<glyph unicode="&#xa7;" horiz-adv-x="892" d="M215 111l203 180q13 -16 45 -33.5t67 -17.5q95 0 115 57q2 23 -18 39t-74 16q-108 0 -189 42t-120 114q-46 81 -21 186q8 31 25 70q50 104 149 174q-64 87 -35 199q12 48 43 97t80.5 95.5t126 75.5t166.5 29q145 0 254 -109l-203 -182q-51 51 -110 51q-94 0 -117 -57 q-2 -23 17.5 -39.5t72.5 -16.5q109 0 192 -42t120 -113q45 -85 20 -189q-3 -16 -25 -67q-46 -101 -149 -174q62 -88 37 -199q-13 -48 -44 -97t-81 -95.5t-126 -75.5t-165 -29q-69 0 -132 27t-89.5 49.5t-34.5 34.5zM467 702q11 -34 48 -50.5t83 -16.5h16q50 3 98 26.5 t64 59.5q2 2 6 10q-13 34 -50 51t-81 17h-16q-53 -3 -101.5 -26.5t-64.5 -59.5z" />
<glyph unicode="&#xa8;" horiz-adv-x="743" d="M401 1315q12 49 55 84t93 35q49 0 75.5 -34.5t14.5 -84.5q-13 -51 -56.5 -86t-93.5 -35t-75.5 35t-12.5 86zM760 1315q12 50 55 84.5t92 34.5t75.5 -34.5t14.5 -84.5q-14 -51 -57 -86t-92 -35q-50 0 -75.5 35t-12.5 86z" />
<glyph unicode="&#xa9;" horiz-adv-x="1343" d="M260 819q41 166 159 308t280.5 224.5t328.5 82.5t287 -82.5t168 -224.5t6 -308t-159 -307.5t-280.5 -224t-328.5 -82.5t-287 82.5t-168 224t-6 307.5zM383 819q-33 -133 4.5 -246t134.5 -179t230 -66t262.5 66t224 179t127.5 246q27 101 9 190.5t-66.5 156.5t-130.5 106 t-181 39q-133 0 -262.5 -66t-224 -179.5t-127.5 -246.5zM602 831q29 119 135 203t226 84t182 -86l-115 -88q-35 47 -100 47q-66 0 -126 -47t-75 -113q-17 -66 19 -112.5t102 -46.5t123 45l67 -90q-104 -84 -221 -84q-120 0 -184 84t-33 204z" />
<glyph unicode="&#xaa;" horiz-adv-x="847" d="M203 657l479 777h197l94 -777h-185l-22 172h-274l-105 -172h-184zM598 1001h147l-22 199z" />
<glyph unicode="&#xad;" d="M158 299l59 238h957l-60 -238h-956z" />
<glyph unicode="&#xae;" horiz-adv-x="1343" d="M260 819q41 166 159 308t280.5 224.5t328.5 82.5t287 -82.5t168 -224.5t6 -308t-159 -307.5t-280.5 -224t-328.5 -82.5t-287 82.5t-168 224t-6 307.5zM383 819q-33 -133 4.5 -246t134.5 -179t230 -66t262.5 66t224 179t127.5 246q27 101 9 190.5t-66.5 156.5t-130.5 106 t-181 39q-133 0 -262.5 -66t-224 -179.5t-127.5 -246.5zM586 543l143 575h236q61 0 106 -26q108 -63 72 -209q-30 -125 -144 -193l68 -147h-156l-49 104h-125l-24 -104h-127zM770 774h109q25 0 65 17q55 29 70 92q17 67 -29 94q-10 5 -23.5 8.5t-21.5 4.5l-8 1h-109z" />
<glyph unicode="&#xb0;" horiz-adv-x="1705" d="M266 1075q38 149 169 254t280 105q148 0 227 -105t41 -254q-37 -148 -167.5 -253t-278.5 -105q-149 0 -228.5 105t-42.5 253zM506 1075q-12 -50 14.5 -84.5t75.5 -34.5t92 34.5t55 84.5t-13.5 84.5t-74.5 34.5q-50 0 -93.5 -35t-55.5 -84z" />
<glyph unicode="&#xb1;" horiz-adv-x="825" d="M55 0l60 240h716l-59 -240h-717zM203 598l59 238h240l59 239h238l-60 -239h240l-59 -238h-240l-59 -240h-238l59 240h-239z" />
<glyph unicode="&#xb2;" horiz-adv-x="636" d="M231 657l39 162l9 12q31 62 186 187q51 39 100 67q57 33 117 80q5 10 12 31q9 38 -7.5 51t-49.5 13q-50 0 -72 -22t-35 -73h-174q35 127 117 197q85 72 207 72q110 0 162 -66.5t26 -171.5q-24 -98 -92 -152q-84 -66 -147 -100q-13 -8 -72 -49q-41 -33 -72 -64h267 l-43 -174h-478z" />
<glyph unicode="&#xb3;" horiz-adv-x="645" d="M268 911h174q-9 -41 13 -70.5t63 -29.5q40 0 77 29.5t46 70.5q10 41 -11 71t-61 30l43 172q15 0 28.5 12t16.5 27q4 15 -3.5 26t-22.5 11q-17 0 -30.5 -11t-18.5 -26h-174q23 88 100.5 149.5t165.5 61.5t134 -61.5t23 -149.5q-12 -58 -57 -109q72 -79 41 -203 q-28 -114 -127.5 -194t-212.5 -80q-114 0 -174.5 80t-32.5 194z" />
<glyph unicode="&#xb4;" horiz-adv-x="403" d="M385 1434h248l-2 -289h-166z" />
<glyph unicode="&#xb6;" horiz-adv-x="1236" d="M256 877q41 167 147 293.5t261 195.5q66 30 138 46.5t101 19t49 2.5h557l-356 -1434h-238l297 1194h-106l-297 -1194h-240l78 319q-131 12 -229 66q-120 69 -161.5 196t-0.5 296zM596 590q53 -22 113 -31l157 633q-58 -4 -127 -31z" />
<glyph unicode="&#xb9;" horiz-adv-x="356" d="M262 651l152 609h-39l43 174h213l-195 -783h-174z" />
<glyph unicode="&#xbf;" horiz-adv-x="960" d="M137 418q48 173 162 264q23 19 172 131q118 89 139 111q17 18 21 32l14 60h238l-15 -60q-13 -50 -37 -92.5t-67 -84t-76.5 -68t-99.5 -74.5q-19 -15 -74.5 -56.5t-89.5 -68.5q-12 -8 -27 -38.5t-22 -55.5q-43 -178 157 -178q117 0 181 54.5t96 182.5h240 q-59 -227 -209 -350q-151 -127 -367 -127q-196 0 -289 115t-47 303zM721 1315q12 50 55 84.5t92 34.5t75.5 -34.5t14.5 -84.5q-14 -51 -57 -86t-92 -35q-50 0 -75.5 35t-12.5 86z" />
<glyph unicode="&#xc0;" horiz-adv-x="1378" d="M27 0l886 1434h256l174 -1434h-256l-36 299h-586l-184 -299h-254zM614 539h408l-68 551zM977 1501l143 289h246l-221 -289h-168z" />
<glyph unicode="&#xc1;" horiz-adv-x="1378" d="M35 0l887 1434h256l174 -1434h-256l-37 299h-586l-184 -299h-254zM623 539h407l-67 551zM901 1790h248l-2 -289h-166z" />
<glyph unicode="&#xc2;" horiz-adv-x="1370" d="M27 0l886 1434h256l174 -1434h-256l-36 299h-586l-184 -299h-254zM614 539h408l-68 551zM909 1671l217 113l160 -113l-110 -131l-95 66l-127 -66z" />
<glyph unicode="&#xc3;" horiz-adv-x="1382" d="M35 0l887 1434h256l174 -1434h-256l-37 299h-586l-184 -299h-254zM623 539h407l-67 551zM756 1614q33 31 55 49.5t61 46.5t78 42.5t76 14.5q68 0 121 -47q15 -12 33 -12q36 0 81.5 29t63.5 47q3 0 11 -9t30 -33.5t41 -45.5q-83 -76 -144.5 -115t-125.5 -39q-71 0 -121 45 q-15 12 -35 12q-49 0 -143 -75z" />
<glyph unicode="&#xc4;" horiz-adv-x="1380" d="M31 0l887 1434h256l174 -1434h-256l-37 299h-586l-184 -299h-254zM618 539h408l-68 551zM813 1665q12 49 56 84t94 35q49 0 74.5 -34.5t13.5 -84.5q-12 -51 -56 -86t-94 -35q-49 0 -74.5 35t-13.5 86zM1171 1665q12 49 56 84t94 35q49 0 74.5 -34.5t13.5 -84.5 q-12 -51 -55.5 -86t-93.5 -35t-75.5 35t-13.5 86z" />
<glyph unicode="&#xc5;" horiz-adv-x="1380" d="M31 0l887 1434h256l174 -1434h-256l-37 299h-586l-184 -299h-254zM618 539h408l-68 551zM940 1653q17 69 78 117.5t129 48.5q69 0 105.5 -48.5t19.5 -117.5q-19 -69 -78.5 -117.5t-128.5 -48.5q-68 0 -106 49t-19 117zM1034 1653q-7 -31 8.5 -52.5t44.5 -21.5 q31 0 58.5 21.5t34.5 52.5t-9 52t-47 21q-30 0 -56.5 -21.5t-33.5 -51.5z" />
<glyph unicode="&#xc6;" horiz-adv-x="1660" d="M41 0l887 1434h844l-60 -240h-500l43 -358h426l-59 -238h-338l45 -358h324l-60 -240h-491l-37 299h-586l-184 -299h-254zM629 539h407l-67 551z" />
<glyph unicode="&#xc7;" horiz-adv-x="1298" d="M212 401.5q-35 144.5 5 319.5q36 145 126 277t210 228t267 153t292 57t262.5 -55t192.5 -158l-211 -168q-51 69 -129.5 106t-173.5 37q-198 0 -373 -140t-225 -337q-26 -99 -8.5 -186t64.5 -151.5t127 -102t177 -37.5q193 0 369 137l125 -170q-126 -100 -269 -153.5 t-284 -53.5h-15l-22 -170l-62 -10q-31 -5 -53 -20t-29 -27t-10 -23q-4 -4 0 -18q15 -23 53 -23q17 0 33.5 3.5t29 8.5t22.5 10.5t16 8.5l6 4l68 -94q-14 -11 -34 -24t-72 -31.5t-103 -18.5q-42 0 -73.5 11.5t-48 30t-26.5 41.5t-9 47t5 46q12 45 54.5 97t113.5 81l10 86 q-152 34 -257.5 135.5t-140.5 246z" />
<glyph unicode="&#xc8;" horiz-adv-x="1048" d="M66 0l356 1434h946l-59 -240h-707l-104 -418h581l-59 -239h-582l-73 -297h706l-59 -240h-946zM768 1501l143 289h246l-221 -289h-168z" />
<glyph unicode="&#xc9;" horiz-adv-x="1046" d="M68 0l356 1434h946l-59 -240h-707l-104 -418h581l-59 -239h-582l-73 -297h706l-59 -240h-946zM758 1790h248l-2 -289h-166z" />
<glyph unicode="&#xca;" horiz-adv-x="1044" d="M63 0l357 1434h946l-59 -240h-707l-104 -418h581l-59 -239h-582l-74 -297h707l-59 -240h-947zM774 1671l217 113l160 -113l-111 -131l-94 66l-127 -66z" />
<glyph unicode="&#xcb;" horiz-adv-x="1058" d="M72 0l356 1434h946l-59 -240h-707l-104 -418h581l-59 -239h-582l-73 -297h706l-59 -240h-946zM627 1665q12 49 55.5 84t93.5 35q49 0 74.5 -34.5t13.5 -84.5q-12 -51 -55.5 -86t-93.5 -35q-49 0 -74.5 35t-13.5 86zM985 1665q12 49 56 84t94 35q49 0 74.5 -34.5 t13.5 -84.5q-12 -51 -56 -86t-94 -35q-49 0 -74.5 35t-13.5 86z" />
<glyph unicode="&#xcc;" horiz-adv-x="444" d="M74 0l356 1434h240l-357 -1434h-239zM479 1503l144 289h245l-221 -289h-168z" />
<glyph unicode="&#xcd;" horiz-adv-x="440" d="M129 0h240l356 1434h-240zM469 1790h248l-2 -289h-166z" />
<glyph unicode="&#xce;" horiz-adv-x="452" d="M106 0l357 1434h239l-356 -1434h-240zM453 1671l217 113l159 -113l-110 -131l-94 66l-127 -66z" />
<glyph unicode="&#xcf;" horiz-adv-x="651" d="M197 0h239l357 1434h-240zM442 1665q12 49 56 84t94 35q49 0 74.5 -34.5t13.5 -84.5q-12 -51 -56 -86t-94 -35q-49 0 -74.5 35t-13.5 86zM801 1665q12 49 55.5 84t93.5 35q49 0 74.5 -34.5t13.5 -84.5q-12 -51 -55.5 -86t-93.5 -35q-49 0 -74.5 35t-13.5 86z" />
<glyph unicode="&#xd0;" horiz-adv-x="1478" d="M133 358l60 240h239l209 836h477q14 0 37.5 -2.5t68.5 -10t98.5 -28t100.5 -50.5q42 -28 76.5 -62t66 -89t47 -120t13 -157t-28.5 -198q-33 -131 -89.5 -239.5t-125.5 -182t-134.5 -122t-137.5 -83.5q-80 -39 -167 -61.5t-122 -25.5t-59 -3h-477l88 358h-240zM582 240 h239q12 0 36 2t83.5 18t112.5 43q231 114 305 414q74 299 -98 413q-39 27 -91 43t-75 18.5t-35 2.5h-240l-149 -596h239l-59 -240h-240z" />
<glyph unicode="&#xd1;" horiz-adv-x="1267" d="M68 0l356 1434h254l389 -1012l252 1012h240l-357 -1434h-254l-389 1012l-252 -1012h-239zM707 1614q33 31 55 49.5t61 46.5t78 42.5t76 14.5q68 0 121 -47q15 -12 32 -12q36 0 82.5 29.5t63.5 46.5q3 0 11 -9t30 -33.5t41 -45.5q-83 -75 -145 -114.5t-126 -39.5 q-70 0 -120 45q-15 12 -35 12q-50 0 -144 -75z" />
<glyph unicode="&#xd2;" horiz-adv-x="1517" d="M199.5 491q-7.5 107 19.5 226q48 194 185.5 359.5t326.5 261.5t383 96q117 0 217.5 -36.5t171 -102t116.5 -155.5t53.5 -197t-19.5 -226q-48 -194 -185.5 -359.5t-326.5 -261.5t-383 -96q-117 0 -217.5 36.5t-171 102t-116.5 155.5t-53.5 197zM450 531q17 -87 64 -151.5 t126.5 -102t176.5 -37.5q198 0 372 139.5t224 337.5q26 99 9 186t-64 151.5t-126.5 102t-176.5 37.5q-198 0 -372 -139.5t-224 -337.5q-26 -99 -9 -186zM1044 1501l144 289h246l-222 -289h-168z" />
<glyph unicode="&#xd3;" horiz-adv-x="1517" d="M201.5 491q7.5 -107 53.5 -197t116.5 -155.5t171 -102t217.5 -36.5q194 0 383 96t326.5 261.5t185.5 359.5q27 119 19.5 226t-53.5 197t-116.5 155.5t-171 102t-217.5 36.5q-194 0 -383 -96t-326.5 -261.5t-185.5 -359.5q-27 -119 -19.5 -226zM452 531q-17 87 9 186 q50 198 224 337.5t372 139.5q97 0 176.5 -37.5t126.5 -102t64 -151.5t-9 -186q-50 -198 -224 -337.5t-372 -139.5q-97 0 -176.5 37.5t-126.5 102t-64 151.5zM975 1790h248l-2 -289h-166z" />
<glyph unicode="&#xd4;" horiz-adv-x="1515" d="M199.5 491q-7.5 107 19.5 226q48 194 185.5 359.5t326.5 261.5t383 96q117 0 217.5 -36.5t171 -102t116.5 -155.5t53.5 -197t-19.5 -226q-48 -194 -185.5 -359.5t-326.5 -261.5t-383 -96q-117 0 -217.5 36.5t-171 102t-116.5 155.5t-53.5 197zM450 531q17 -87 64 -151.5 t126.5 -102t176.5 -37.5q198 0 372 139.5t224 337.5q26 99 9 186t-64 151.5t-126.5 102t-176.5 37.5q-198 0 -372 -139.5t-224 -337.5q-26 -99 -9 -186zM985 1671l217 113l160 -113l-111 -131l-94 66l-127 -66z" />
<glyph unicode="&#xd5;" horiz-adv-x="1521" d="M203.5 491q-7.5 107 19.5 226q48 194 185.5 359.5t326.5 261.5t383 96q117 0 217.5 -36.5t171 -102t116.5 -155.5t53.5 -197t-19.5 -226q-48 -194 -185.5 -359.5t-326.5 -261.5t-383 -96q-117 0 -217.5 36.5t-171 102t-116.5 155.5t-53.5 197zM454 531q17 -87 64 -151.5 t126.5 -102t176.5 -37.5q198 0 372 139.5t224 337.5q26 99 9 186t-64 151.5t-126.5 102t-176.5 37.5q-198 0 -372 -139.5t-224 -337.5q-26 -99 -9 -186zM821 1614q32 30 55 49.5t61.5 47t78 42t76.5 14.5q67 0 120 -47q15 -12 33 -12q36 0 82.5 29.5t63.5 46.5q3 0 11 -9 t30 -33.5t41 -45.5q-83 -75 -145 -114.5t-126 -39.5q-71 0 -121 45q-15 12 -34 12q-50 0 -144 -75z" />
<glyph unicode="&#xd6;" horiz-adv-x="1523" d="M203.5 491q7.5 -107 53.5 -197t116.5 -155.5t171 -102t217.5 -36.5q194 0 383 96t326.5 261.5t185.5 359.5q27 119 19.5 226t-53.5 197t-116.5 155.5t-171 102t-217.5 36.5q-194 0 -383 -96t-326.5 -261.5t-185.5 -359.5q-27 -119 -19.5 -226zM454 531q-17 87 9 186 q50 198 224 337.5t372 139.5q97 0 176.5 -37.5t126.5 -102t64 -151.5t-9 -186q-50 -198 -224 -337.5t-372 -139.5q-97 0 -176.5 37.5t-126.5 102t-64 151.5zM870 1665q12 49 56 84t94 35q49 0 74.5 -34.5t13.5 -84.5q-12 -51 -56 -86t-94 -35q-49 0 -74.5 35t-13.5 86z M1229 1665q12 49 55.5 84t93.5 35q49 0 74.5 -34.5t13.5 -84.5q-12 -51 -55.5 -86t-93.5 -35q-49 0 -74.5 35t-13.5 86z" />
<glyph unicode="&#xd7;" horiz-adv-x="962" d="M174 463l318 254l-191 254l209 168l190 -252l318 252l127 -168l-316 -254l189 -254l-211 -168l-191 254l-317 -254z" />
<glyph unicode="&#xd8;" horiz-adv-x="1560" d="M168 158l121 108q-53 94 -65.5 208t18.5 243q48 194 185.5 359.5t326.5 261.5t383 96q206 0 352 -109l113 100l141 -157l-115 -101q109 -192 47 -450q-48 -194 -185.5 -359.5t-326.5 -261.5t-383 -96q-209 0 -352 106l-119 -106zM481 717q-37 -148 15 -268l786 694 q-88 51 -205 51q-198 0 -372 -139.5t-224 -337.5zM637 291q85 -51 203 -51q198 0 372 139.5t224 337.5q38 147 -17 266z" />
<glyph unicode="&#xd9;" horiz-adv-x="1187" d="M175.5 412q0.5 27 3.5 54t5.5 43.5t5.5 32.5l3 15l219 877h239l-219 -877q-20 -88 0 -172q36 -145 219 -145q184 0 291 145q18 23 34 49.5t25 47.5t15.5 38.5t9.5 27.5l4 11l217 875h240l-219 -877q-2 -13 -13 -46.5t-43.5 -99t-74.5 -124.5q-100 -138 -241 -212.5 t-304 -74.5t-267.5 74.5t-136.5 212.5q-7 31 -10 64.5t-2.5 60.5zM856 1501l143 289h246l-221 -289h-168z" />
<glyph unicode="&#xda;" horiz-adv-x="1185" d="M177.5 412q-0.5 -27 2.5 -60.5t10 -64.5q32 -138 136.5 -212.5t267.5 -74.5t304 74.5t241 212.5q42 59 74.5 124.5t43.5 99t13 46.5l219 877h-240l-217 -875l-4 -11q-3 -10 -9.5 -27.5t-15.5 -38.5t-25 -47.5t-34 -49.5q-107 -145 -291 -145q-183 0 -219 145q-9 37 -9 80 t5 67l4 25l219 877h-239l-219 -877l-3 -15q-3 -16 -5.5 -32.5t-5.5 -43.5t-3.5 -54zM819 1790h248l-2 -289h-166z" />
<glyph unicode="&#xdb;" horiz-adv-x="1185" d="M175.5 412q0.5 27 3.5 54t5.5 43.5t5.5 32.5l3 15l219 877h239l-219 -877q-20 -88 0 -172q36 -145 219 -145q184 0 291 145q18 23 34 49.5t25 47.5t15.5 38.5t9.5 27.5l4 11l217 875h240l-219 -877q-2 -13 -13 -46.5t-43.5 -99t-74.5 -124.5q-100 -138 -241 -212.5 t-304 -74.5t-267.5 74.5t-136.5 212.5q-7 31 -10 64.5t-2.5 60.5zM821 1671l217 113l160 -113l-111 -131l-94 66l-127 -66z" />
<glyph unicode="&#xdc;" horiz-adv-x="1198" d="M182.5 412q-0.5 -27 2.5 -60.5t10 -64.5q32 -138 136.5 -212.5t266.5 -74.5q163 0 304 74.5t241 212.5q42 59 74.5 124.5t43.5 99t13 46.5l219 877h-240l-217 -875l-4 -11q-3 -10 -9.5 -27.5t-15.5 -38.5t-25 -47.5t-34 -49.5q-107 -145 -291 -145q-183 0 -219 145 q-9 37 -9 80t5 67l4 25l219 877h-239l-219 -877l-3 -15q-3 -16 -5.5 -32.5t-5 -43.5t-3 -54zM717 1665q12 49 55.5 84t93.5 35q49 0 74.5 -34.5t13.5 -84.5q-12 -51 -55.5 -86t-93.5 -35q-49 0 -74.5 35t-13.5 86zM1075 1665q12 49 56 84t94 35q49 0 74.5 -34.5t13.5 -84.5 q-12 -51 -56 -86t-94 -35q-49 0 -74.5 35t-13.5 86z" />
<glyph unicode="&#xdd;" horiz-adv-x="1345" d="M373 1434h293l239 -512l492 512h293l-727 -756l-168 -678h-240l168 678zM885 1790h248l-3 -289h-165z" />
<glyph unicode="&#xde;" horiz-adv-x="1054" d="M84 0l356 1434h240l-76 -304q125 64 254 64q130 0 224.5 -63.5t131.5 -173.5t5 -240t-124 -240t-218 -173.5t-256 -63.5q-133 0 -224 63l-73 -303h-240zM502 717q-25 -98 27.5 -169t150.5 -71q99 0 186.5 70.5t112.5 169.5q25 98 -27.5 168.5t-152.5 70.5 q-98 0 -185 -70.5t-112 -168.5z" />
<glyph unicode="&#xdf;" horiz-adv-x="1333" d="M84 2l356 1432h639q93 0 154 -19q66 -23 111.5 -72.5t64.5 -117.5q21 -90 -4 -197q-22 -82 -72 -160q-5 -10 -34.5 -52t-32.5 -42q71 -48 104 -121.5t23 -163.5q0 -4 -11 -59q-12 -46 -34 -98q-53 -106 -160 -199l-8 -6q-111 -76 -220.5 -101.5t-242.5 -25.5h-215l57 236 h207q97 0 168 15t131 56q36 32 54 60.5t28 70.5q0 2 1 8t1 9q7 69 -44 102t-124 39h-156l60 240h78q49 9 95 40t72 72q23 38 35 80q11 49 2 90q-6 26 -22 42t-42.5 23t-48.5 9t-57 2h-376l-297 -1192h-240z" />
<glyph unicode="&#xe0;" horiz-adv-x="1134" d="M27 0l667 1077h271l131 -1077h-256l-29 240h-381l-147 -240h-256zM578 479h204l-34 275zM762 1145l143 289h246l-221 -289h-168z" />
<glyph unicode="&#xe1;" horiz-adv-x="1132" d="M37 0l668 1077h270l131 -1077h-256l-29 240h-381l-147 -240h-256zM588 479h205l-35 275zM696 1434h248l-2 -289h-166z" />
<glyph unicode="&#xe2;" horiz-adv-x="1122" d="M33 0l669 1083h254l134 -1083h-254l-27 197h-401l-121 -197h-254zM557 436h225l-37 303zM700 1321l218 113l159 -113l-110 -131l-95 65l-127 -65z" />
<glyph unicode="&#xe3;" horiz-adv-x="1144" d="M45 0l670 1083h254l133 -1083h-254l-27 197h-401l-121 -197h-254zM549 1264q33 31 55 49.5t61 46.5t78 42.5t76 14.5q68 0 121 -47q15 -12 35 -12q36 0 80.5 29t62.5 47q3 0 11 -9t30 -33.5t41 -45.5q-84 -77 -144.5 -115.5t-123.5 -38.5q-73 0 -123 45q-15 12 -33 12 q-44 0 -145 -75zM569 436h226l-37 303z" />
<glyph unicode="&#xe4;" horiz-adv-x="1148" d="M45 0l670 1083h254l133 -1083h-254l-27 197h-401l-121 -197h-254zM569 436h226l-37 303zM612 1315q12 49 55 84t93 35q49 0 75.5 -34.5t14.5 -84.5q-13 -51 -56.5 -86t-93.5 -35t-75.5 35t-12.5 86zM971 1315q12 50 55 84.5t92 34.5t75.5 -34.5t14.5 -84.5 q-14 -51 -57 -86t-92 -35q-50 0 -75.5 35t-12.5 86z" />
<glyph unicode="&#xe5;" horiz-adv-x="1136" d="M35 0l663 1075h273l131 -1075h-254l-31 240h-379l-149 -240h-254zM586 477h202l-34 275zM721 1268q17 69 78 117.5t129 48.5q69 0 105.5 -48.5t19.5 -117.5t-77.5 -117.5t-129.5 -48.5q-68 0 -105 48.5t-20 117.5zM815 1268q-7 -31 8.5 -52.5t44.5 -21.5q31 0 58.5 21.5 t34.5 52.5t-9 52t-47 21q-30 0 -56.5 -21.5t-33.5 -51.5z" />
<glyph unicode="&#xe6;" horiz-adv-x="1347" d="M43 0l664 1075h718l-59 -239h-369l25 -179h362l-61 -239h-274l22 -178h268l-59 -240h-434l-27 197h-401l-121 -197h-254zM567 436h226l-37 303z" />
<glyph unicode="&#xe7;" horiz-adv-x="999" d="M174 543q36 146 138.5 269.5t243.5 195t286 71.5q220 0 346 -161l-211 -162q-87 84 -195 84q-123 0 -230 -86.5t-138 -210.5q-32 -124 32 -211.5t187 -87.5q118 0 237 86l125 -172q-178 -135 -372 -154l-13 -110l-69 -9q-33 -5 -54.5 -21.5t-27.5 -28.5t-8 -23 q-5 -20 7.5 -30.5t47.5 -10.5q24 0 49 8.5t38 16.5l13 9l66 -94q-4 -6 -27.5 -21.5t-72.5 -32.5t-99 -17q-42 0 -74.5 11.5t-50 30t-28 42t-10 47.5t4.5 47q13 48 55.5 97t116.5 77v20q-182 31 -272.5 181.5t-40.5 349.5z" />
<glyph unicode="&#xe8;" horiz-adv-x="813" d="M59 0l267 1075h698l-59 -239h-459l-55 -222h372l-59 -237h-373l-33 -137h459l-59 -240h-699zM584 1145l143 289h246l-221 -289h-168z" />
<glyph unicode="&#xe9;" horiz-adv-x="808" d="M70 0l266 1075h698l-59 -239h-459l-55 -222h373l-60 -237h-373l-32 -137h458l-59 -240h-698zM532 1434h248l-2 -289h-166z" />
<glyph unicode="&#xea;" horiz-adv-x="815" d="M29 0l266 1075h698l-59 -239h-459l-55 -222h373l-60 -237h-373l-32 -137h458l-59 -240h-698zM532 1321l218 113l159 -113l-110 -131l-94 65l-127 -65z" />
<glyph unicode="&#xeb;" horiz-adv-x="845" d="M74 0l266 1075h698l-59 -239h-459l-55 -222h373l-60 -237h-372l-33 -137h458l-59 -240h-698zM473 1315q12 49 55 84t93 35q49 0 75.5 -34.5t14.5 -84.5q-13 -51 -56.5 -86t-93.5 -35t-75.5 35t-12.5 86zM831 1315q12 49 55 84t93 35q49 0 75.5 -34.5t14.5 -84.5 q-14 -51 -57 -86t-92 -35q-50 0 -76 35t-13 86z" />
<glyph unicode="&#xec;" horiz-adv-x="450" d="M72 0l266 1075h240l-267 -1075h-239zM391 1145l144 289h245l-221 -289h-168z" />
<glyph unicode="&#xed;" horiz-adv-x="450" d="M141 0h240l266 1075h-239zM385 1434h248l-2 -289h-166z" />
<glyph unicode="&#xee;" horiz-adv-x="460" d="M111 0l266 1075h239l-266 -1075h-239zM371 1321l217 113l160 -113l-111 -131l-94 65l-127 -65z" />
<glyph unicode="&#xef;" horiz-adv-x="679" d="M219 0h240l266 1075h-240zM369 1315q12 50 55 84.5t92 34.5q51 0 77.5 -34.5t14.5 -84.5q-14 -51 -57 -86t-94 -35q-50 0 -75.5 35t-12.5 86zM727 1315q12 50 55 84.5t92 34.5q51 0 78 -34.5t15 -84.5q-14 -51 -57.5 -86t-94.5 -35q-50 0 -75.5 35t-12.5 86z" />
<glyph unicode="&#xf0;" horiz-adv-x="1177" d="M172 539q36 146 139.5 270t246 196t288.5 72q84 0 155 -24l-6 141h-164l60 240h479l-59 -240h-66l19 -475q9 -85 -15 -180q-36 -146 -139 -270t-244.5 -196.5t-287.5 -72.5t-252.5 72.5t-148 196.5t-5.5 270zM412 539q-31 -123 35 -211t190 -88t233 88t140 211 q14 52 8 106q-11 86 -74.5 139.5t-159.5 53.5q-124 0 -232.5 -87t-139.5 -212z" />
<glyph unicode="&#xf1;" horiz-adv-x="1034" d="M70 0l266 1075h244l254 -641l159 641h238l-266 -1075h-244l-252 641l-160 -641h-239zM520 1264q32 30 55 49.5t61.5 47t78 42t76.5 14.5q67 0 120 -47q15 -12 35 -12q36 0 81 29t63 47q3 0 11 -9t29 -33t41 -46q-84 -77 -144.5 -115.5t-123.5 -38.5q-73 0 -123 45 q-15 12 -32 12q-45 0 -146 -75z" />
<glyph unicode="&#xf2;" horiz-adv-x="1161" d="M172 539q36 146 139.5 270t246 196t288.5 72q109 0 198.5 -42.5t142 -115.5t72.5 -171t-10 -209q-36 -146 -139 -270t-244.5 -196.5t-287.5 -72.5t-252.5 72.5t-148 196.5t-5.5 270zM412 539q-31 -125 35 -212t190 -87q125 0 233.5 87.5t139.5 211.5t-35 211.5t-191 87.5 q-124 0 -232.5 -87t-139.5 -212zM774 1145l144 289h245l-221 -289h-168z" />
<glyph unicode="&#xf3;" horiz-adv-x="1159" d="M176 539q36 146 139.5 270t246 196t288.5 72q109 0 198.5 -42.5t142 -115.5t72.5 -171t-10 -209q-36 -146 -139 -270t-244.5 -196.5t-287.5 -72.5t-252.5 72.5t-148 196.5t-5.5 270zM416 539q-31 -125 35 -212t190 -87q125 0 233.5 87.5t139.5 211.5t-35 211.5t-191 87.5 q-124 0 -232.5 -87t-139.5 -212zM709 1434h247l-2 -289h-166z" />
<glyph unicode="&#xf4;" horiz-adv-x="1157" d="M174 539q56 221 252.5 378.5t417.5 157.5q146 0 252.5 -72t147.5 -195.5t5 -268.5q-36 -146 -139 -270t-244.5 -196.5t-287.5 -72.5q-145 0 -251 72t-147.5 196.5t-5.5 270.5zM414 539q-31 -124 34.5 -211.5t188.5 -87.5q125 0 233.5 87.5t139.5 211.5q31 123 -35.5 210 t-190.5 87q-123 0 -231 -87t-139 -210zM721 1321l217 113l160 -113l-111 -131l-94 65l-127 -65z" />
<glyph unicode="&#xf5;" horiz-adv-x="1171" d="M180 539q56 221 252.5 378.5t417.5 157.5q146 0 252.5 -72t147.5 -195.5t5 -268.5q-36 -146 -139 -270t-244.5 -196.5t-287.5 -72.5q-145 0 -251 72t-147.5 196.5t-5.5 270.5zM420 539q-31 -124 34.5 -211.5t188.5 -87.5q125 0 233.5 87.5t139.5 211.5q31 123 -35 210 t-190 87q-123 0 -231.5 -87t-139.5 -210zM586 1266q34 32 55 49.5t60 46.5t77.5 43t75.5 14q70 0 123 -47q15 -12 33 -12q36 0 80.5 29t62.5 47q3 0 11.5 -9t30 -33t42.5 -46q-83 -76 -144.5 -115t-125.5 -39q-73 0 -123 45q-15 12 -33 12q-49 0 -143 -75z" />
<glyph unicode="&#xf6;" horiz-adv-x="1169" d="M180 539q56 221 252.5 378.5t417.5 157.5q146 0 252.5 -72t147.5 -195.5t5 -268.5q-36 -146 -139 -270t-244.5 -196.5t-287.5 -72.5q-145 0 -251 72t-147.5 196.5t-5.5 270.5zM420 539q-31 -124 34.5 -211.5t188.5 -87.5q125 0 233.5 87.5t139.5 211.5q31 123 -35 210 t-190 87q-123 0 -231.5 -87t-139.5 -210zM614 1315q12 49 55 84t93 35q49 0 75.5 -34.5t14.5 -84.5q-13 -51 -56.5 -86t-93.5 -35t-75.5 35t-12.5 86zM973 1315q12 50 55 84.5t92 34.5t75.5 -34.5t14.5 -84.5q-14 -51 -57 -86t-92 -35q-50 0 -75.5 35t-12.5 86z" />
<glyph unicode="&#xf7;" horiz-adv-x="954" d="M156 539l59 237h913l-59 -237h-913zM426 319q14 51 57 86t92 35q51 0 77.5 -35t13.5 -86q-12 -50 -55.5 -84t-94.5 -34q-50 0 -76 34.5t-14 83.5zM596 995q12 50 55 84.5t92 34.5q51 0 78 -34.5t15 -84.5q-14 -51 -57.5 -86t-94.5 -35q-50 0 -75.5 35t-12.5 86z" />
<glyph unicode="&#xf8;" horiz-adv-x="1200" d="M145 158l74 65q-68 134 -24 316q56 221 252 378.5t417 157.5q141 0 242 -63l94 82l137 -158l-92 -82q67 -147 25 -315q-36 -146 -139 -270t-245 -196.5t-288 -72.5q-136 0 -242 66l-71 -66zM430 412l463 411q-44 13 -88 13q-123 0 -231.5 -87t-139.5 -210 q-16 -70 -4 -127zM569 254q38 -14 88 -14q125 0 233.5 87.5t139.5 211.5q17 64 4 127z" />
<glyph unicode="&#xf9;" horiz-adv-x="950" d="M144 323q2 49 6 76.5t8 36.5l157 633h240l-158 -633q-2 -3 -4.5 -18t-2 -42.5t6.5 -51.5q21 -84 133 -84q115 0 179 90q16 23 29.5 49.5t18.5 41.5l5 15l158 633h239l-158 -633q0 -1 -4 -12t-8.5 -24.5t-13.5 -34.5t-19 -42t-25.5 -47.5t-33.5 -50.5 q-80 -109 -189.5 -167t-236.5 -58q-128 0 -210 58t-107 167q-12 49 -10 98zM672 1137l143 288h246l-221 -288h-168z" />
<glyph unicode="&#xfa;" horiz-adv-x="950" d="M152 323q-2 -49 10 -98q25 -109 107 -167t210 -58q127 0 236.5 58t189.5 167q18 24 33.5 50.5t26 47.5t19.5 42t13.5 34.5t8.5 24.5t4 12l157 633h-239l-158 -633q-16 -55 -53 -106q-64 -90 -178 -90q-112 0 -133 84q-6 24 -6.5 51.5t2 42.5t4.5 18l157 633h-239 l-158 -633q-4 -9 -8 -36.5t-6 -76.5zM606 1425h248l-2 -288h-166z" />
<glyph unicode="&#xfb;" horiz-adv-x="954" d="M150 323q2 49 6 76.5t8 36.5l158 633h239l-158 -633q-2 -3 -4.5 -18t-2 -42.5t6.5 -51.5q21 -84 134 -84q114 0 178 90q16 23 29.5 49.5t18.5 41.5l5 15l158 633h239l-157 -633q0 -1 -4 -12t-8.5 -24.5t-13.5 -34.5t-19.5 -42t-26 -47.5t-33.5 -50.5 q-80 -109 -189.5 -167t-236.5 -58q-128 0 -210 58t-107 167q-12 49 -10 98zM623 1321l217 113l159 -113l-110 -131l-94 65l-127 -65z" />
<glyph unicode="&#xfc;" horiz-adv-x="970" d="M158 323q2 49 6 76.5t8 36.5l158 633h239l-157 -633q-2 -3 -4.5 -18t-2 -42.5t6.5 -51.5q21 -84 133 -84q114 0 178 90q16 23 29.5 49.5t18.5 41.5l5 15l158 633h240l-158 -633q0 -1 -4 -12t-8.5 -24.5t-13.5 -34.5t-19.5 -42t-26 -47.5t-33.5 -50.5 q-80 -109 -189.5 -167t-236.5 -58q-128 0 -210 58t-107 167q-12 49 -10 98zM510 1315q12 50 55 84.5t94 34.5q50 0 76.5 -35t14.5 -84q-13 -51 -56.5 -86t-93.5 -35q-51 0 -77 35t-13 86zM868 1315q12 50 55.5 84.5t94.5 34.5q49 0 75.5 -34.5t14.5 -84.5q-13 -51 -56.5 -86 t-93.5 -35q-51 0 -77 35t-13 86z" />
<glyph unicode="&#xfd;" horiz-adv-x="1091" d="M285 1071h293l153 -330l318 330h294l-552 -573l-123 -498h-240l123 498zM670 1425h248l-3 -288h-165z" />
<glyph unicode="&#xff;" horiz-adv-x="1103" d="M289 1071h293l153 -330l318 330h295l-553 -573l-123 -498h-240l123 498zM584 1315q12 49 55.5 84t93.5 35q49 0 75.5 -34.5t14.5 -84.5q-14 -51 -57 -86t-92 -35q-50 0 -76.5 35t-13.5 86zM942 1315q12 49 56 84t94 35q49 0 75.5 -34.5t14.5 -84.5q-13 -51 -56.5 -86 t-93.5 -35t-76.5 35t-13.5 86z" />
<glyph unicode="&#x152;" horiz-adv-x="1486" d="M213.5 491q-7.5 107 19.5 226q48 194 185.5 359.5t326.5 261.5t383 96h631l-59 -240h-512l-90 -358h512l-60 -238h-512l-88 -358h512l-59 -240h-631q-117 0 -217.5 36.5t-171 102t-116.5 155.5t-53.5 197zM473 717q-41 -166 27.5 -294.5t214.5 -168.5l231 926 q-166 -40 -299 -169t-174 -294z" />
<glyph unicode="&#x153;" horiz-adv-x="1155" d="M188 539q56 221 252.5 378.5t417.5 157.5h479l-59 -239h-358l-43 -179h301l-62 -239h-301l-43 -178h358l-59 -240h-479q-145 0 -251 72t-147.5 196.5t-5.5 270.5zM428 539q-23 -91 8 -166t103 -109l135 547q-87 -34 -155 -108t-91 -164z" />
<glyph unicode="&#x178;" horiz-adv-x="1349" d="M373 1434h293l239 -512l492 512h293l-727 -756l-168 -678h-240l168 678zM786 1673q12 49 56 84t94 35q49 0 74.5 -34.5t13.5 -84.5q-12 -51 -56 -86t-94 -35q-49 0 -74.5 35t-13.5 86zM1145 1673q12 49 55.5 84t93.5 35q49 0 74.5 -34.5t13.5 -84.5q-12 -51 -55.5 -86 t-93.5 -35q-49 0 -74.5 35t-13.5 86z" />
<glyph unicode="&#x2c6;" horiz-adv-x="462" d="M371 1321l217 113l160 -113l-111 -131l-94 65l-127 -65z" />
<glyph unicode="&#x2dc;" horiz-adv-x="729" d="M365 1264q33 31 55 49.5t61 46.5t78 42.5t76 14.5q68 0 121 -47q15 -12 35 -12q36 0 80.5 29t62.5 47q3 0 11 -9t30 -33.5t41 -45.5q-84 -77 -144.5 -115.5t-123.5 -38.5q-73 0 -123 45q-15 12 -33 12q-45 0 -146 -75z" />
<glyph unicode="&#x2000;" horiz-adv-x="909" />
<glyph unicode="&#x2001;" horiz-adv-x="1819" />
<glyph unicode="&#x2002;" horiz-adv-x="909" />
<glyph unicode="&#x2003;" horiz-adv-x="1819" />
<glyph unicode="&#x2004;" horiz-adv-x="606" />
<glyph unicode="&#x2005;" horiz-adv-x="454" />
<glyph unicode="&#x2006;" horiz-adv-x="303" />
<glyph unicode="&#x2007;" horiz-adv-x="303" />
<glyph unicode="&#x2008;" horiz-adv-x="227" />
<glyph unicode="&#x2009;" horiz-adv-x="363" />
<glyph unicode="&#x200a;" horiz-adv-x="101" />
<glyph unicode="&#x2010;" d="M158 299l59 238h957l-60 -238h-956z" />
<glyph unicode="&#x2011;" d="M158 299l59 238h957l-60 -238h-956z" />
<glyph unicode="&#x2012;" d="M158 299l59 238h957l-60 -238h-956z" />
<glyph unicode="&#x2013;" horiz-adv-x="997" d="M158 299l59 238h830l-60 -238h-829z" />
<glyph unicode="&#x2014;" horiz-adv-x="1400" d="M158 299l59 238h1233l-59 -238h-1233z" />
<glyph unicode="&#x2022;" horiz-adv-x="473" d="M236 717q19 74 85.5 127t139.5 53t112.5 -53t20.5 -127t-84.5 -126t-138.5 -52q-74 0 -114 52.5t-21 125.5z" />
<glyph unicode="&#x202f;" horiz-adv-x="363" />
<glyph unicode="&#x205f;" horiz-adv-x="454" />
<glyph unicode="&#x20ac;" horiz-adv-x="1425" d="M164 498l33 133h104q6 41 18 86q10 45 23 80h-104l34 133h131q125 221 349 362.5t462 141.5q147 0 264.5 -56.5t190.5 -156.5l-211 -170q-48 68 -126 105.5t-177 37.5q-139 0 -271.5 -72.5t-221.5 -191.5h765l-34 -133h-809q-18 -41 -27 -80q-4 -15 -14 -86h809l-33 -133 h-764q31 -117 128 -187.5t235 -70.5q197 0 366 137l127 -170q-125 -98 -267.5 -152.5t-285.5 -54.5q-236 0 -390 139t-171 359h-133z" />
<glyph unicode="&#x2122;" horiz-adv-x="1681" d="M367 1194l59 240h598l-59 -240h-181l-104 -418h-240l105 418h-178zM979 776l164 658h194l144 -269l278 269h195l-164 -658h-238l54 215l-222 -213l-112 213l-53 -215h-240z" />
<glyph unicode="&#xe000;" horiz-adv-x="1075" d="M0 0v1075h1075v-1075h-1075z" />
</font>
</defs>
</svg>
